<?xml version="1.0" standalone="no"?>
<!DOCTYPE svg PUBLIC "-//W3C//DTD SVG 20010904//EN"
 "http://www.w3.org/TR/2001/REC-SVG-20010904/DTD/svg10.dtd">
<svg version="1.0" xmlns="http://www.w3.org/2000/svg"
 width="1480.000000pt" height="1602.000000pt" viewBox="0 0 1480.000000 1602.000000"
 preserveAspectRatio="xMidYMid meet">

<g transform="translate(0.000000,1602.000000) scale(0.100000,-0.100000)"
fill="#335eea" stroke="none">
<path d="M13693 15986 c-173 -46 -438 -171 -828 -391 -104 -59 -3040 -1755
-6523 -3768 -4956 -2866 -6334 -3667 -6338 -3684 -27 -104 247 -466 591 -783
936 -861 2181 -1461 3400 -1639 343 -50 430 -56 875 -56 444 0 533 6 870 55
552 81 1145 256 1700 503 523 232 1086 566 1604 951 l159 118 -7 -79 c-27
-329 -35 -938 -16 -1253 77 -1251 419 -2339 1027 -3265 560 -852 1314 -1535
2259 -2044 729 -393 1606 -659 2107 -639 122 5 179 19 204 49 9 12 -40 1594
-227 7304 -131 4010 -244 7389 -250 7510 -36 730 -110 1015 -287 1105 -70 36
-196 38 -320 6z"/>
</g>
</svg>
